<svg width="186" height="187" viewBox="0 0 186 187" fill="none" xmlns="http://www.w3.org/2000/svg">
<path fill-rule="evenodd" clip-rule="evenodd" d="M46.5356 1.85144C21.4364 1.85144 1.08984 22.1905 1.08984 47.2797V140.174C1.08984 165.263 21.4364 185.602 46.5356 185.602H139.465C164.564 185.602 184.911 165.263 184.911 140.174V47.2797C184.911 22.1905 164.564 1.85144 139.465 1.85144H46.5356ZM0.0898438 47.2797C0.0898438 21.6379 20.8845 0.85144 46.5356 0.85144H139.465C165.116 0.85144 185.911 21.6379 185.911 47.2797V140.174C185.911 165.815 165.116 186.602 139.465 186.602H46.5356C20.8845 186.602 0.0898438 165.815 0.0898438 140.174V47.2797Z" fill="black"/>
<path d="M46.5945 93.3258C72.0022 93.3258 92.5992 72.7367 92.5992 47.3386C92.5992 21.9406 72.0022 1.35144 46.5945 1.35144C21.1868 1.35144 0.589844 21.9406 0.589844 47.3386C0.589844 72.7367 21.1868 93.3258 46.5945 93.3258Z" fill="white"/>
<path fill-rule="evenodd" clip-rule="evenodd" d="M46.5945 1.85144C21.4628 1.85144 1.08984 22.2169 1.08984 47.3386C1.08984 72.4603 21.4628 92.8258 46.5945 92.8258C71.7263 92.8258 92.0992 72.4603 92.0992 47.3386C92.0992 22.2169 71.7263 1.85144 46.5945 1.85144ZM0.0898438 47.3386C0.0898438 21.6643 20.9109 0.85144 46.5945 0.85144C72.2782 0.85144 93.0992 21.6643 93.0992 47.3386C93.0992 73.013 72.2782 93.8258 46.5945 93.8258C20.9109 93.8258 0.0898438 73.013 0.0898438 47.3386Z" fill="#131313"/>
<path fill-rule="evenodd" clip-rule="evenodd" d="M138.896 0.854173C139.066 0.852353 139.236 0.85144 139.406 0.85144C139.576 0.85144 139.746 0.852352 139.915 0.854172L139.904 1.85411C139.738 1.85233 139.572 1.85144 139.406 1.85144C139.239 1.85144 139.073 1.85233 138.907 1.85412L138.896 0.854173ZM140.93 0.875945C141.268 0.886826 141.605 0.90131 141.941 0.919363L141.888 1.91792C141.559 1.90025 141.229 1.88608 140.898 1.87543L140.93 0.875945ZM136.87 0.919365C137.207 0.901312 137.544 0.886827 137.882 0.875947L137.914 1.87543C137.583 1.88608 137.253 1.90026 136.924 1.91793L136.87 0.919365ZM142.956 0.984882C143.293 1.01033 143.629 1.03937 143.964 1.07197L143.868 2.06728C143.54 2.03537 143.211 2.00695 142.881 1.98205L142.956 0.984882ZM134.847 1.07198C135.182 1.03938 135.519 1.01033 135.856 0.984884L135.931 1.98205C135.601 2.00695 135.272 2.03538 134.944 2.06728L134.847 1.07198ZM144.974 1.18133C145.311 1.22144 145.646 1.26514 145.98 1.31239L145.84 2.30253C145.513 2.2563 145.185 2.21354 144.856 2.17429L144.974 1.18133ZM132.832 1.31239C133.166 1.26514 133.501 1.22145 133.837 1.18133L133.956 2.17429C133.627 2.21354 133.299 2.2563 132.972 2.30253L132.832 1.31239ZM146.983 1.46541C147.317 1.52021 147.65 1.57857 147.982 1.64046L147.799 2.62353C147.474 2.56297 147.148 2.50587 146.821 2.45226L146.983 1.46541ZM130.829 1.64046C131.161 1.57857 131.495 1.52021 131.829 1.46542L131.991 2.45226C131.664 2.50588 131.337 2.56298 131.013 2.62353L130.829 1.64046ZM148.976 1.83697C149.308 1.9064 149.639 1.97937 149.968 2.05584L149.742 3.02993C149.42 2.95512 149.096 2.88373 148.772 2.8158L148.976 1.83697ZM128.843 2.05584C129.173 1.97938 129.503 1.90641 129.835 1.83698L130.04 2.8158C129.715 2.88373 129.392 2.95512 129.069 3.02994L128.843 2.05584ZM150.952 2.2957C151.281 2.37962 151.608 2.46705 151.934 2.55793L151.665 3.52115C151.347 3.43224 151.026 3.3467 150.705 3.2646L150.952 2.2957ZM126.878 2.55793C127.203 2.46705 127.531 2.37963 127.859 2.2957L128.107 3.2646C127.785 3.34671 127.465 3.43224 127.146 3.52115L126.878 2.55793ZM152.907 2.84105C153.232 2.93922 153.554 3.04084 153.876 3.14586L153.565 4.09634C153.251 3.9936 152.935 3.89418 152.618 3.79814L152.907 2.84105ZM124.936 3.14586C125.257 3.04084 125.58 2.93923 125.904 2.84105L126.194 3.79814C125.877 3.89419 125.561 3.9936 125.247 4.09634L124.936 3.14586ZM154.836 3.47171C155.156 3.58394 155.473 3.69956 155.789 3.81851L155.437 4.75442C155.128 4.63804 154.817 4.52493 154.505 4.41513L154.836 3.47171ZM123.022 3.81852C123.338 3.69956 123.656 3.58395 123.975 3.47172L124.307 4.41514C123.995 4.52494 123.684 4.63805 123.375 4.75443L123.022 3.81852ZM156.735 4.18644C157.049 4.31251 157.361 4.44189 157.672 4.57456L157.279 5.49411C156.975 5.36431 156.67 5.23772 156.363 5.11439L156.735 4.18644ZM121.14 4.57456C121.45 4.4419 121.763 4.31251 122.076 4.18644L122.449 5.11439C122.142 5.23773 121.837 5.36432 121.533 5.49411L121.14 4.57456ZM158.601 4.98378C158.909 5.12346 159.215 5.26639 159.519 5.41254L159.086 6.31397C158.789 6.17098 158.489 6.03114 158.188 5.89448L158.601 4.98378ZM119.292 5.41254C119.597 5.26639 119.903 5.12346 120.211 4.98378L120.624 5.89448C120.323 6.03114 120.023 6.17099 119.725 6.31398L119.292 5.41254ZM160.43 5.86208C160.731 6.01516 161.031 6.17143 161.329 6.33085L160.857 7.21247C160.566 7.05649 160.272 6.90359 159.977 6.75381L160.43 5.86208ZM117.483 6.33085C117.781 6.17143 118.08 6.01516 118.382 5.86208L118.835 6.75382C118.539 6.90359 118.246 7.05649 117.955 7.21247L117.483 6.33085ZM115.715 7.3273C116.006 7.15495 116.299 6.98568 116.593 6.81953L117.084 7.69063C116.796 7.8532 116.51 8.01883 116.225 8.18747L115.715 7.3273ZM162.218 6.81953C162.513 6.98568 162.806 7.15495 163.096 7.3273L162.586 8.18747C162.302 8.01883 162.016 7.8532 161.727 7.69063L162.218 6.81953ZM113.993 8.39985C114.276 8.21494 114.561 8.03302 114.848 7.85415L115.377 8.70299C115.096 8.87802 114.817 9.05603 114.54 9.23697L113.993 8.39985ZM163.963 7.85416C164.251 8.03303 164.536 8.21494 164.819 8.39986L164.272 9.23698C163.995 9.05603 163.716 8.87803 163.435 8.703L163.963 7.85416ZM112.319 9.54634C112.594 9.34924 112.871 9.15507 113.15 8.96385L113.715 9.78887C113.442 9.97598 113.171 10.166 112.902 10.3589L112.319 9.54634ZM165.662 8.96386C165.941 9.15507 166.218 9.34925 166.492 9.54634L165.909 10.3589C165.641 10.166 165.37 9.97598 165.096 9.78887L165.662 8.96386ZM110.697 10.7645C110.963 10.5556 111.231 10.3496 111.502 10.1464L112.102 10.9461C111.838 11.1449 111.575 11.3465 111.315 11.5509L110.697 10.7645ZM167.31 10.1464C167.58 10.3496 167.849 10.5556 168.115 10.7645L167.497 11.5509C167.237 11.3465 166.974 11.1449 166.709 10.9461L167.31 10.1464ZM109.129 12.0519C109.386 11.8317 109.645 11.6142 109.906 11.3995L110.541 12.1724C110.285 12.3824 110.032 12.5953 109.781 12.8108L109.129 12.0519ZM168.905 11.3996C169.167 11.6142 169.426 11.8317 169.682 12.0519L169.031 12.8108C168.78 12.5953 168.527 12.3825 168.271 12.1724L168.905 11.3996ZM107.619 13.4061C107.866 13.175 108.115 12.9465 108.367 12.7208L109.034 13.4653C108.788 13.6863 108.544 13.9098 108.302 14.136L107.619 13.4061ZM170.445 12.7208C170.697 12.9465 170.946 13.175 171.193 13.4061L170.509 14.136C170.268 13.9098 170.024 13.6863 169.777 13.4653L170.445 12.7208ZM106.168 14.8245C106.405 14.5829 106.644 14.3439 106.886 14.1074L107.585 14.8224C107.349 15.0537 107.115 15.2877 106.883 15.5241L106.168 14.8245ZM171.926 14.1075C172.168 14.3439 172.407 14.5829 172.643 14.8245L171.929 15.5241C171.697 15.2877 171.463 15.0538 171.227 14.8224L171.926 14.1075ZM104.781 16.3045C105.007 16.0528 105.235 15.8037 105.467 15.557L106.196 16.2409C105.97 16.4823 105.746 16.7262 105.525 16.9725L104.781 16.3045ZM173.345 15.557C173.576 15.8037 173.805 16.0529 174.031 16.3045L173.287 16.9725C173.066 16.7262 172.842 16.4823 172.615 16.2409L173.345 15.557ZM103.459 17.8434C103.674 17.5821 103.891 17.3232 104.112 17.0667L104.87 17.7183C104.655 17.9693 104.442 18.2227 104.231 18.4784L103.459 17.8434ZM174.7 17.0667C174.92 17.3232 175.138 17.5821 175.353 17.8434L174.58 18.4784C174.37 18.2227 174.157 17.9694 173.942 17.7184L174.7 17.0667ZM102.205 19.4382C102.408 19.1677 102.614 18.8996 102.823 18.6338L103.609 19.2519C103.405 19.512 103.203 19.7744 103.004 20.0391L102.205 19.4382ZM175.988 18.6338C176.197 18.8996 176.404 19.1677 176.607 19.4382L175.808 20.0391C175.609 19.7744 175.407 19.512 175.202 19.2519L175.988 18.6338ZM101.021 21.0859C101.213 20.8068 101.407 20.53 101.604 20.2554L102.417 20.8387C102.224 21.1075 102.033 21.3784 101.846 21.6514L101.021 21.0859ZM177.207 20.2554C177.405 20.53 177.599 20.8068 177.79 21.0859L176.966 21.6514C176.778 21.3784 176.588 21.1075 176.395 20.8387L177.207 20.2554ZM99.9108 22.7835C100.09 22.4964 100.272 22.2114 100.457 21.9285L101.294 22.476C101.113 22.7528 100.935 23.0317 100.759 23.3126L99.9108 22.7835ZM178.355 21.9285C178.54 22.2114 178.722 22.4964 178.901 22.7835L178.052 23.3126C177.877 23.0317 177.699 22.7528 177.518 22.476L178.355 21.9285ZM179.428 23.6502C179.601 23.9408 179.77 24.2334 179.936 24.528L179.066 25.0196C178.903 24.7313 178.737 24.4449 178.568 24.1606L179.428 23.6502ZM98.8753 24.528C99.0416 24.2334 99.211 23.9408 99.3835 23.6502L100.243 24.1606C100.075 24.4449 99.9089 24.7313 99.7461 25.0196L98.8753 24.528ZM180.426 25.4172C180.585 25.7149 180.742 26.0146 180.895 26.3161L180.003 26.7691C179.853 26.4741 179.7 26.1809 179.544 25.8895L180.426 25.4172ZM97.917 26.3162C98.0702 26.0146 98.2266 25.7149 98.3862 25.4172L99.2676 25.8896C99.1115 26.1809 98.9584 26.4741 98.8085 26.7691L97.917 26.3162ZM181.345 27.2263C181.491 27.5306 181.634 27.8367 181.774 28.1446L180.863 28.558C180.727 28.2568 180.587 27.9573 180.443 27.6596L181.345 27.2263ZM97.0378 28.1446C97.1777 27.8367 97.3207 27.5306 97.467 27.2263L98.3683 27.6596C98.2251 27.9573 98.0852 28.2568 97.9484 28.558L97.0378 28.1446ZM182.183 29.0736C182.316 29.384 182.446 29.6961 182.572 30.0099L181.644 30.383C181.521 30.076 181.394 29.7706 181.264 29.4669L182.183 29.0736ZM96.2397 30.0099C96.3659 29.6961 96.4955 29.384 96.6283 29.0736L97.5476 29.467C97.4177 29.7706 97.291 30.076 97.1675 30.383L96.2397 30.0099ZM182.94 30.9557C183.059 31.2718 183.175 31.5894 183.287 31.9087L182.344 32.2406C182.234 31.9283 182.121 31.6175 182.004 31.3083L182.94 30.9557ZM95.5243 31.9087C95.6366 31.5895 95.7524 31.2718 95.8714 30.9557L96.8072 31.3083C96.6907 31.6175 96.5775 31.9283 96.4676 32.2407L95.5243 31.9087ZM183.614 32.8693C183.719 33.1905 183.82 33.5132 183.919 33.8374L182.962 34.1275C182.866 33.8103 182.766 33.4946 182.663 33.1804L183.614 32.8693ZM94.893 33.8374C94.9912 33.5132 95.093 33.1905 95.1981 32.8693L96.1485 33.1804C96.0456 33.4946 95.9461 33.8103 95.85 34.1275L94.893 33.8374ZM184.202 34.8107C184.293 35.1365 184.381 35.4636 184.465 35.7922L183.496 36.04C183.414 35.7185 183.328 35.3984 183.239 35.0797L184.202 34.8107ZM94.347 35.7923C94.431 35.4637 94.5186 35.1365 94.6095 34.8107L95.5727 35.0797C95.4837 35.3984 95.3981 35.7185 95.3159 36.04L94.347 35.7923ZM184.705 36.7762C184.781 37.1055 184.854 37.4362 184.924 37.7682L183.945 37.9731C183.877 37.6483 183.806 37.3248 183.731 37.0026L184.705 36.7762ZM93.8878 37.7682C93.9573 37.4363 94.0304 37.1056 94.1069 36.7762L95.0809 37.0026C95.0061 37.3248 94.9346 37.6484 94.8666 37.9732L93.8878 37.7682ZM185.121 38.7621C185.183 39.0941 185.241 39.4274 185.296 39.7619L184.309 39.9237C184.255 39.5965 184.198 39.2704 184.138 38.9455L185.121 38.7621ZM93.5158 39.7619C93.5707 39.4274 93.6291 39.0942 93.6911 38.7621L94.6741 38.9455C94.6135 39.2704 94.5563 39.5965 94.5026 39.9238L93.5158 39.7619ZM185.449 40.7646C185.496 41.0986 185.54 41.4337 185.58 41.77L184.587 41.8886C184.548 41.5596 184.505 41.2316 184.459 40.9048L185.449 40.7646ZM93.2314 41.77C93.2716 41.4338 93.3153 41.0986 93.3626 40.7646L94.3527 40.9049C94.3065 41.2317 94.2637 41.5596 94.2244 41.8886L93.2314 41.77ZM185.69 42.7801C185.722 43.1152 185.751 43.4514 185.777 43.7887L184.78 43.864C184.755 43.534 184.726 43.205 184.694 42.877L185.69 42.7801ZM93.0348 43.7887C93.0602 43.4515 93.0893 43.1153 93.1219 42.7801L94.1172 42.877C94.0853 43.205 94.0568 43.534 94.0319 43.864L93.0348 43.7887ZM185.843 44.8032C185.861 45.1393 185.875 45.4764 185.886 45.8143L184.887 45.8465C184.876 45.5157 184.862 45.1859 184.844 44.8569L185.843 44.8032ZM92.9257 45.8143C92.9366 45.4764 92.9511 45.1394 92.9692 44.8033L93.9677 44.857C93.95 45.1859 93.9358 45.5158 93.9252 45.8465L92.9257 45.8143ZM185.908 46.8292C185.91 46.9988 185.911 47.1686 185.911 47.3386C185.911 47.5086 185.91 47.6784 185.908 47.848L184.908 47.8373C184.909 47.7424 184.91 47.6474 184.91 47.5523C184.91 47.4811 184.911 47.4099 184.911 47.3386C184.911 47.1722 184.91 47.006 184.908 46.84L185.908 46.8292ZM92.9012 47.3386C92.9012 47.1686 92.9021 46.9988 92.9039 46.8293L93.9038 46.84C93.902 47.006 93.9012 47.1722 93.9012 47.3386C93.9012 47.5051 93.902 47.6713 93.9038 47.8373L92.9039 47.8481C92.9021 47.6785 92.9012 47.5087 92.9012 47.3386ZM185.886 48.8629C185.875 49.2009 185.861 49.5379 185.843 49.874L184.844 49.8203C184.862 49.4914 184.876 49.1615 184.887 48.8307L185.886 48.8629ZM92.9692 49.874C92.9511 49.5379 92.9366 49.2009 92.9257 48.863L93.9252 48.8308C93.9358 49.1615 93.95 49.4914 93.9677 49.8203L92.9692 49.874ZM185.777 50.8886C185.751 51.2258 185.722 51.562 185.69 51.8972L184.694 51.8003C184.726 51.4723 184.755 51.1432 184.78 50.8132L185.777 50.8886ZM93.1219 51.8972C93.0893 51.562 93.0602 51.2258 93.0348 50.8886L94.0319 50.8133C94.0568 51.1433 94.0853 51.4723 94.1172 51.8003L93.1219 51.8972ZM185.58 52.9073C185.54 53.2435 185.496 53.5786 185.449 53.9126L184.459 53.7724C184.505 53.4456 184.548 53.1177 184.587 52.7887L185.58 52.9073ZM93.3626 53.9127C93.3153 53.5787 93.2716 53.2435 93.2314 52.9073L94.2244 52.7887C94.2637 53.1177 94.3065 53.4456 94.3528 53.7724L93.3626 53.9127ZM185.296 54.9153C185.241 55.2498 185.183 55.5831 185.121 55.9152L184.138 55.7317C184.198 55.4069 184.255 55.0808 184.309 54.7535L185.296 54.9153ZM93.6911 55.9152C93.6291 55.5831 93.5707 55.2499 93.5158 54.9154L94.5026 54.7535C94.5563 55.0808 94.6135 55.4069 94.6741 55.7318L93.6911 55.9152ZM184.924 56.909C184.854 57.241 184.781 57.5717 184.705 57.901L183.731 57.6746C183.806 57.3524 183.877 57.0289 183.945 56.7041L184.924 56.909ZM94.1069 57.9011C94.0304 57.5717 93.9573 57.241 93.8878 56.9091L94.8666 56.7041C94.9346 57.0289 95.0061 57.3525 95.0809 57.6747L94.1069 57.9011ZM184.465 58.885C184.381 59.2136 184.293 59.5408 184.202 59.8665L183.239 59.5975C183.328 59.2789 183.414 58.9588 183.496 58.6373L184.465 58.885ZM94.6096 59.8666C94.5186 59.5408 94.431 59.2136 94.347 58.885L95.3159 58.6373C95.3981 58.9588 95.4837 59.2789 95.5727 59.5976L94.6096 59.8666ZM183.919 60.8399C183.82 61.1641 183.719 61.4868 183.614 61.8079L182.663 61.4968C182.766 61.1826 182.866 60.867 182.962 60.5498L183.919 60.8399ZM95.1981 61.808C95.093 61.4868 94.9912 61.1641 94.893 60.8399L95.85 60.5498C95.9461 60.867 96.0456 61.1827 96.1485 61.4969L95.1981 61.808ZM183.287 62.7685C183.175 63.0878 183.059 63.4055 182.94 63.7215L182.004 63.3689C182.121 63.0598 182.234 62.749 182.344 62.4366L183.287 62.7685ZM95.8715 63.7215C95.7524 63.4055 95.6366 63.0878 95.5243 62.7686L96.4676 62.4366C96.5775 62.749 96.6907 63.0598 96.8072 63.369L95.8715 63.7215ZM182.572 64.6673C182.446 64.9812 182.316 65.2933 182.183 65.6037L181.264 65.2103C181.394 64.9066 181.521 64.6013 181.644 64.2942L182.572 64.6673ZM96.6283 65.6037C96.4955 65.2933 96.3659 64.9812 96.2397 64.6673L97.1675 64.2943C97.291 64.6013 97.4177 64.9067 97.5476 65.2103L96.6283 65.6037ZM181.774 66.5327C181.634 66.8406 181.491 67.1467 181.345 67.4509L180.443 67.0176C180.587 66.7199 180.727 66.4205 180.863 66.1192L181.774 66.5327ZM97.467 67.4509C97.3207 67.1467 97.1777 66.8406 97.0379 66.5327L97.9484 66.1192C98.0852 66.4205 98.2251 66.7199 98.3683 67.0176L97.467 67.4509ZM180.895 68.3611C180.742 68.6627 180.585 68.9623 180.426 69.2601L179.544 68.7877C179.7 68.4964 179.853 68.2032 180.003 67.9081L180.895 68.3611ZM98.3862 69.2601C98.2266 68.9624 98.0702 68.6627 97.917 68.3611L98.8085 67.9082C98.9584 68.2032 99.1115 68.4964 99.2676 68.7877L98.3862 69.2601ZM99.3835 71.0271C99.211 70.7365 99.0416 70.4439 98.8753 70.1492L99.7461 69.6577C99.9089 69.946 100.075 70.2323 100.243 70.5167L99.3835 71.0271ZM179.936 70.1492C179.77 70.4439 179.601 70.7365 179.428 71.0271L178.568 70.5167C178.737 70.2323 178.903 69.946 179.066 69.6577L179.936 70.1492ZM100.457 72.7487C100.272 72.4659 100.09 72.1808 99.9108 71.8937L100.759 71.3646C100.935 71.6456 101.113 71.9245 101.294 72.2013L100.457 72.7487ZM178.901 71.8937C178.722 72.1808 178.54 72.4659 178.355 72.7487L177.518 72.2013C177.699 71.9245 177.877 71.6456 178.052 71.3646L178.901 71.8937ZM101.604 74.4219C101.407 74.1473 101.213 73.8704 101.021 73.5914L101.846 73.0258C102.033 73.2989 102.223 73.5698 102.417 73.8385L101.604 74.4219ZM177.79 73.5914C177.599 73.8704 177.405 74.1473 177.207 74.4219L176.395 73.8385C176.588 73.5698 176.778 73.2989 176.966 73.0258L177.79 73.5914ZM102.823 76.0435C102.614 75.7777 102.408 75.5095 102.205 75.2391L103.004 74.6382C103.203 74.9028 103.405 75.1652 103.609 75.4254L102.823 76.0435ZM176.607 75.2391C176.404 75.5095 176.197 75.7777 175.988 76.0435L175.202 75.4254C175.407 75.1653 175.609 74.9028 175.808 74.6382L176.607 75.2391ZM104.112 77.6106C103.891 77.3541 103.674 77.0952 103.459 76.8339L104.231 76.1988C104.442 76.4545 104.654 76.7079 104.87 76.9589L104.112 77.6106ZM175.353 76.8339C175.138 77.0952 174.92 77.3541 174.7 77.6106L173.942 76.9589C174.157 76.7079 174.37 76.4546 174.58 76.1988L175.353 76.8339ZM105.467 79.1203C105.235 78.8736 105.007 78.6244 104.781 78.3727L105.525 77.7048C105.746 77.9511 105.97 78.1949 106.196 78.4363L105.467 79.1203ZM174.031 78.3728C173.805 78.6244 173.576 78.8736 173.345 79.1203L172.615 78.4363C172.842 78.1949 173.066 77.9511 173.287 77.7048L174.031 78.3728ZM106.886 80.5698C106.644 80.3334 106.405 80.0944 106.168 79.8528L106.883 79.1532C107.114 79.3896 107.349 79.6235 107.585 79.8549L106.886 80.5698ZM172.643 79.8528C172.407 80.0944 172.168 80.3334 171.926 80.5698L171.227 79.8549C171.463 79.6235 171.697 79.3896 171.929 79.1532L172.643 79.8528ZM108.367 81.9565C108.115 81.7308 107.866 81.5023 107.619 81.2712L108.302 80.5413C108.544 80.7674 108.788 80.991 109.034 81.2119L108.367 81.9565ZM171.193 81.2712C170.946 81.5023 170.697 81.7308 170.445 81.9565L169.777 81.2119C170.024 80.991 170.268 80.7674 170.509 80.5413L171.193 81.2712ZM109.906 83.2777C109.645 83.063 109.386 82.8456 109.129 82.6254L109.781 81.8665C110.032 82.082 110.285 82.2948 110.541 82.5049L109.906 83.2777ZM169.682 82.6254C169.426 82.8456 169.167 83.0631 168.905 83.2777L168.271 82.5049C168.527 82.2948 168.78 82.082 169.031 81.8665L169.682 82.6254ZM111.502 84.5309C111.231 84.3277 110.963 84.1217 110.697 83.9128L111.315 83.1264C111.575 83.3308 111.838 83.5324 112.102 83.7312L111.502 84.5309ZM168.115 83.9128C167.849 84.1217 167.58 84.3277 167.31 84.5309L166.709 83.7312C166.974 83.5324 167.237 83.3308 167.497 83.1264L168.115 83.9128ZM113.15 85.7134C112.871 85.5222 112.594 85.328 112.319 85.1309L112.902 84.3184C113.171 84.5113 113.442 84.7013 113.715 84.8884L113.15 85.7134ZM166.492 85.1309C166.218 85.328 165.941 85.5222 165.662 85.7134L165.096 84.8884C165.37 84.7013 165.641 84.5113 165.909 84.3184L166.492 85.1309ZM114.848 86.8231C114.561 86.6442 114.276 86.4623 113.993 86.2774L114.54 85.4403C114.817 85.6212 115.096 85.7992 115.377 85.9743L114.848 86.8231ZM164.819 86.2774C164.536 86.4623 164.251 86.6442 163.963 86.8231L163.435 85.9743C163.716 85.7992 163.995 85.6212 164.272 85.4403L164.819 86.2774ZM116.593 87.8577C116.299 87.6916 116.006 87.5223 115.715 87.35L116.225 86.4898C116.51 86.6584 116.796 86.8241 117.084 86.9866L116.593 87.8577ZM163.096 87.35C162.806 87.5223 162.513 87.6916 162.218 87.8577L161.727 86.9866C162.016 86.8241 162.302 86.6584 162.586 86.4898L163.096 87.35ZM118.382 88.8152C118.08 88.6621 117.781 88.5058 117.483 88.3464L117.955 87.4648C118.246 87.6208 118.539 87.7737 118.835 87.9235L118.382 88.8152ZM161.329 88.3464C161.031 88.5058 160.731 88.6621 160.43 88.8152L159.977 87.9235C160.272 87.7737 160.566 87.6208 160.857 87.4648L161.329 88.3464ZM120.211 89.6935C119.903 89.5538 119.597 89.4109 119.292 89.2647L119.725 88.3633C120.023 88.5063 120.323 88.6461 120.624 88.7828L120.211 89.6935ZM159.519 89.2647C159.215 89.4109 158.909 89.5538 158.601 89.6935L158.188 88.7828C158.489 88.6461 158.789 88.5063 159.086 88.3633L159.519 89.2647ZM122.076 90.4908C121.763 90.3648 121.45 90.2354 121.14 90.1027L121.533 89.1832C121.837 89.313 122.142 89.4395 122.449 89.5629L122.076 90.4908ZM157.672 90.1027C157.361 90.2354 157.049 90.3648 156.735 90.4908L156.363 89.5629C156.67 89.4395 156.975 89.313 157.279 89.1832L157.672 90.1027ZM123.975 91.2056C123.656 91.0933 123.338 90.9777 123.022 90.8588L123.375 89.9228C123.684 90.0392 123.995 90.1523 124.307 90.2621L123.975 91.2056ZM155.789 90.8587C155.473 90.9777 155.156 91.0933 154.836 91.2056L154.505 90.2621C154.817 90.1523 155.128 90.0392 155.437 89.9228L155.789 90.8587ZM153.876 91.5314C153.554 91.6364 153.232 91.738 152.907 91.8362L152.618 90.8791C152.935 90.7831 153.251 90.6837 153.565 90.5809L153.876 91.5314ZM125.904 91.8362C125.58 91.738 125.257 91.6364 124.936 91.5314L125.247 90.5809C125.561 90.6837 125.877 90.7831 126.194 90.8791L125.904 91.8362ZM151.934 92.1193C151.608 92.2102 151.281 92.2976 150.952 92.3816L150.705 91.4127C151.026 91.3306 151.347 91.245 151.665 91.1561L151.934 92.1193ZM127.859 92.3816C127.531 92.2976 127.204 92.2102 126.878 92.1193L127.146 91.1561C127.465 91.245 127.785 91.3306 128.107 91.4127L127.859 92.3816ZM149.968 92.6214C149.639 92.6979 149.308 92.7709 148.976 92.8403L148.772 91.8615C149.096 91.7935 149.42 91.7221 149.742 91.6473L149.968 92.6214ZM129.835 92.8403C129.503 92.7709 129.173 92.6979 128.843 92.6214L129.07 91.6473C129.392 91.7222 129.715 91.7935 130.04 91.8615L129.835 92.8403ZM131.829 93.2119C131.495 93.1571 131.161 93.0987 130.829 93.0368L131.013 92.0537C131.337 92.1143 131.664 92.1714 131.991 92.225L131.829 93.2119ZM147.982 93.0368C147.65 93.0987 147.317 93.1571 146.983 93.2119L146.821 92.225C147.148 92.1714 147.474 92.1143 147.799 92.0537L147.982 93.0368ZM145.98 93.3649C145.646 93.4121 145.311 93.4558 144.974 93.4959L144.856 92.503C145.185 92.4637 145.513 92.421 145.84 92.3747L145.98 93.3649ZM133.837 93.4959C133.501 93.4558 133.166 93.4121 132.832 93.3649L132.972 92.3747C133.299 92.421 133.627 92.4637 133.956 92.503L133.837 93.4959ZM135.856 93.6924C135.519 93.6669 135.183 93.6379 134.847 93.6053L134.944 92.61C135.272 92.6419 135.601 92.6703 135.931 92.6952L135.856 93.6924ZM143.964 93.6053C143.629 93.6379 143.293 93.6669 142.956 93.6924L142.881 92.6952C143.211 92.6703 143.54 92.6419 143.868 92.61L143.964 93.6053ZM137.882 93.8013C137.544 93.7904 137.207 93.776 136.871 93.7579L136.924 92.7593C137.253 92.777 137.583 92.7912 137.914 92.8018L137.882 93.8013ZM141.941 93.7579C141.605 93.776 141.268 93.7904 140.93 93.8013L140.898 92.8018C141.229 92.7912 141.559 92.777 141.888 92.7593L141.941 93.7579ZM139.406 93.8258C139.236 93.8258 139.066 93.8249 138.896 93.8231L138.907 92.8232C139.073 92.8249 139.239 92.8258 139.406 92.8258C139.572 92.8258 139.739 92.8249 139.905 92.8232L139.915 93.8231C139.746 93.8249 139.576 93.8258 139.406 93.8258Z" fill="black"/>
<path fill-rule="evenodd" clip-rule="evenodd" d="M46.0851 93.7009C46.2547 93.6991 46.4245 93.6982 46.5945 93.6982C46.7645 93.6982 46.9343 93.6991 47.1039 93.7009L47.0932 94.7009C46.9272 94.6991 46.761 94.6982 46.5945 94.6982C46.4281 94.6982 46.2619 94.6991 46.0958 94.7009L46.0851 93.7009ZM48.1188 93.7227C48.4567 93.7336 48.7938 93.7481 49.1298 93.7661L49.0762 94.7647C48.7473 94.747 48.4174 94.7328 48.0866 94.7222L48.1188 93.7227ZM44.0592 93.7661C44.3953 93.7481 44.7323 93.7336 45.0702 93.7227L45.1024 94.7222C44.7716 94.7328 44.4417 94.747 44.1128 94.7647L44.0592 93.7661ZM50.1444 93.8316C50.4816 93.8571 50.8179 93.8861 51.153 93.9187L51.0562 94.914C50.7282 94.8821 50.3992 94.8537 50.0692 94.8288L50.1444 93.8316ZM42.036 93.9187C42.3712 93.8861 42.7074 93.8571 43.0446 93.8316L43.1198 94.8288C42.7898 94.8537 42.4608 94.8821 42.1328 94.914L42.036 93.9187ZM52.1631 94.0281C52.4994 94.0682 52.8345 94.1119 53.1685 94.1591L53.0284 95.1493C52.7016 95.1031 52.3737 95.0603 52.0447 95.021L52.1631 94.0281ZM40.0205 94.1591C40.3545 94.1119 40.6897 94.0682 41.0259 94.0281L41.1444 95.021C40.8153 95.0603 40.4874 95.1031 40.1606 95.1493L40.0205 94.1591ZM54.1712 94.3122C54.5057 94.367 54.839 94.4253 55.1711 94.4872L54.9878 95.4703C54.6629 95.4097 54.3368 95.3526 54.0096 95.299L54.1712 94.3122ZM38.018 94.4872C38.35 94.4253 38.6833 94.367 39.0178 94.3122L39.1795 95.299C38.8522 95.3526 38.5261 95.4097 38.2012 95.4703L38.018 94.4872ZM56.1649 94.6837C56.4969 94.7532 56.8276 94.8261 57.157 94.9026L56.9309 95.8767C56.6086 95.8019 56.2851 95.7305 55.9602 95.6625L56.1649 94.6837ZM36.032 94.9026C36.3614 94.8261 36.6921 94.7532 37.0241 94.6837L37.2288 95.6626C36.904 95.7305 36.5804 95.8019 36.2582 95.8767L36.032 94.9026ZM58.141 95.1424C58.4696 95.2264 58.7969 95.3138 59.1226 95.4047L58.8539 96.3679C58.5352 96.279 58.2151 96.1935 57.8936 96.1113L58.141 95.1424ZM34.0664 95.4047C34.3922 95.3138 34.7194 95.2264 35.048 95.1424L35.2955 96.1114C34.974 96.1935 34.6538 96.279 34.3351 96.3679L34.0664 95.4047ZM60.0961 95.6878C60.4203 95.786 60.743 95.8876 61.0642 95.9926L60.7534 96.9431C60.4392 96.8403 60.1235 96.7409 59.8063 96.6449L60.0961 95.6878ZM32.1248 95.9926C32.446 95.8876 32.7687 95.786 33.093 95.6878L33.3828 96.6449C33.0656 96.7409 32.7498 96.8403 32.4356 96.9431L32.1248 95.9926ZM62.0249 96.3185C62.3442 96.4307 62.6619 96.5463 62.978 96.6653L62.6258 97.6012C62.3165 97.4848 62.0057 97.3717 61.6933 97.2619L62.0249 96.3185ZM30.211 96.6653C30.5271 96.5463 30.8448 96.4307 31.1641 96.3185L31.4957 97.2619C31.1833 97.3717 30.8725 97.4848 30.5633 97.6012L30.211 96.6653ZM63.9239 97.0332C64.2378 97.1593 64.55 97.2886 64.8604 97.4213L64.4674 98.3409C64.1637 98.2111 63.8583 98.0845 63.5512 97.9611L63.9239 97.0332ZM28.3286 97.4213C28.6391 97.2887 28.9512 97.1593 29.2651 97.0332L29.6378 97.9611C29.3307 98.0845 29.0253 98.2111 28.7216 98.3409L28.3286 97.4213ZM65.7896 97.8305C66.0976 97.9702 66.4037 98.1131 66.708 98.2593L66.2751 99.1607C65.9774 99.0177 65.6778 98.8779 65.3765 98.7412L65.7896 97.8305ZM26.481 98.2593C26.7853 98.1131 27.0915 97.9702 27.3994 97.8305L27.8125 98.7412C27.5112 98.8779 27.2117 99.0177 26.9139 99.1607L26.481 98.2593ZM67.6184 98.7088C67.9201 98.8619 68.2198 99.0182 68.5176 99.1776L68.0457 100.059C67.7543 99.9032 67.461 99.7503 67.1659 99.6006L67.6184 98.7088ZM24.6714 99.1776C24.9692 99.0182 25.269 98.8619 25.5706 98.7088L26.0232 99.6006C25.7281 99.7504 25.4348 99.9032 25.1434 100.059L24.6714 99.1776ZM69.407 99.6663C69.7017 99.8324 69.9944 100.002 70.2851 100.174L69.7751 101.034C69.4907 100.866 69.2042 100.7 68.9159 100.537L69.407 99.6663ZM22.904 100.174C23.1946 100.002 23.4874 99.8324 23.7821 99.6663L24.2732 100.537C23.9848 100.7 23.6984 100.866 23.414 101.034L22.904 100.174ZM71.152 100.701C71.4392 100.88 71.7243 101.062 72.0073 101.247L71.4603 102.084C71.1834 101.903 70.9044 101.725 70.6233 101.55L71.152 100.701ZM21.1818 101.247C21.4647 101.062 21.7499 100.88 22.0371 100.701L22.5657 101.55C22.2847 101.725 22.0057 101.903 21.7288 102.084L21.1818 101.247ZM72.8502 101.811C73.1294 102.002 73.4063 102.196 73.681 102.393L73.0981 103.206C72.8293 103.013 72.5583 102.823 72.2851 102.636L72.8502 101.811ZM19.508 102.393C19.7827 102.196 20.0597 102.002 20.3389 101.811L20.904 102.636C20.6308 102.823 20.3598 103.013 20.091 103.206L19.508 102.393ZM17.8858 103.611C18.1517 103.402 18.42 103.196 18.6905 102.993L19.291 103.793C19.0262 103.992 18.7637 104.193 18.5035 104.398L17.8858 103.611ZM74.4985 102.993C74.7691 103.196 75.0374 103.402 75.3033 103.611L74.6856 104.398C74.4254 104.193 74.1628 103.992 73.8981 103.793L74.4985 102.993ZM16.318 104.899C16.5746 104.678 16.8336 104.461 17.095 104.246L17.7296 105.019C17.4738 105.229 17.2203 105.442 16.9692 105.658L16.318 104.899ZM76.094 104.246C76.3555 104.461 76.6145 104.678 76.8711 104.899L76.2199 105.658C75.9688 105.442 75.7153 105.229 75.4594 105.019L76.094 104.246ZM14.8075 106.253C15.0543 106.022 15.3036 105.793 15.5554 105.568L16.223 106.312C15.9765 106.533 15.7326 106.757 15.491 106.983L14.8075 106.253ZM77.6337 105.568C77.8854 105.793 78.1348 106.022 78.3816 106.253L77.698 106.983C77.4565 106.757 77.2125 106.533 76.9661 106.312L77.6337 105.568ZM13.3572 107.671C13.5937 107.43 13.8329 107.191 14.0746 106.954L14.7738 107.669C14.5372 107.9 14.3032 108.134 14.0717 108.371L13.3572 107.671ZM79.1144 106.954C79.3562 107.191 79.5954 107.43 79.8319 107.671L79.1174 108.371C78.8859 108.134 78.6518 107.9 78.4153 107.669L79.1144 106.954ZM11.9696 109.151C12.1955 108.9 12.4241 108.65 12.6554 108.404L13.3849 109.088C13.1586 109.329 12.9349 109.573 12.7138 109.819L11.9696 109.151ZM80.5337 108.404C80.765 108.65 80.9936 108.9 81.2194 109.151L80.4753 109.819C80.2542 109.573 80.0305 109.329 79.8042 109.088L80.5337 108.404ZM10.6475 110.69C10.8624 110.429 11.08 110.17 11.3003 109.913L12.0588 110.565C11.8432 110.816 11.6302 111.069 11.42 111.325L10.6475 110.69ZM81.8888 109.913C82.1091 110.17 82.3267 110.429 82.5415 110.69L81.769 111.325C81.5588 111.069 81.3459 110.816 81.1302 110.565L81.8888 109.913ZM9.39352 112.285C9.59683 112.014 9.80301 111.746 10.012 111.481L10.7981 112.099C10.5936 112.359 10.3918 112.621 10.1929 112.886L9.39352 112.285ZM83.177 111.481C83.3861 111.746 83.5922 112.014 83.7955 112.285L82.9962 112.886C82.7973 112.621 82.5955 112.359 82.391 112.099L83.177 111.481ZM8.21007 113.933C8.40143 113.654 8.59575 113.377 8.793 113.102L9.6052 113.685C9.41219 113.954 9.22203 114.225 9.03478 114.498L8.21007 113.933ZM84.3961 113.102C84.5933 113.377 84.7876 113.654 84.979 113.933L84.1543 114.498C83.967 114.225 83.7769 113.954 83.5839 113.685L84.3961 113.102ZM85.5434 114.775C85.7285 115.058 85.9106 115.343 86.0896 115.63L85.241 116.159C85.0658 115.878 84.8877 115.6 84.7066 115.323L85.5434 114.775ZM7.09948 115.63C7.27849 115.343 7.46055 115.058 7.64562 114.775L8.48245 115.323C8.30136 115.6 8.12321 115.878 7.94805 116.159L7.09948 115.63ZM86.6169 116.497C86.7894 116.788 86.9588 117.08 87.1251 117.375L86.2542 117.866C86.0915 117.578 85.9258 117.292 85.757 117.007L86.6169 116.497ZM6.06397 117.375C6.23026 117.08 6.39968 116.788 6.57217 116.497L7.43209 117.007C7.26331 117.292 7.09754 117.578 6.93483 117.866L6.06397 117.375ZM87.6142 118.264C87.7738 118.562 87.9302 118.861 88.0834 119.163L87.1919 119.616C87.042 119.321 86.8889 119.028 86.7328 118.736L87.6142 118.264ZM5.10566 119.163C5.25888 118.861 5.41529 118.562 5.57485 118.264L6.45625 118.736C6.30014 119.028 6.1471 119.321 5.99719 119.616L5.10566 119.163ZM88.5334 120.073C88.6796 120.377 88.8227 120.683 88.9625 120.991L88.052 121.405C87.9152 121.104 87.7752 120.804 87.6321 120.506L88.5334 120.073ZM4.22654 120.991C4.36635 120.683 4.50942 120.377 4.6557 120.073L5.55695 120.506C5.41382 120.804 5.27385 121.104 5.13706 121.405L4.22654 120.991ZM89.3721 121.92C89.5049 122.231 89.6344 122.543 89.7606 122.857L88.8328 123.23C88.7094 122.923 88.5827 122.617 88.4527 122.314L89.3721 121.92ZM3.42842 122.857C3.55462 122.543 3.68413 122.231 3.81693 121.92L4.73632 122.314C4.60639 122.617 4.47968 122.923 4.35622 123.23L3.42842 122.857ZM90.1289 123.802C90.248 124.119 90.3637 124.436 90.4761 124.755L89.5328 125.087C89.4229 124.775 89.3096 124.464 89.1931 124.155L90.1289 123.802ZM2.71297 124.755C2.82532 124.436 2.94105 124.119 3.06013 123.802L3.99591 124.155C3.87941 124.464 3.76619 124.775 3.65628 125.087L2.71297 124.755ZM90.8023 125.716C90.9074 126.037 91.0091 126.36 91.1074 126.684L90.1504 126.974C90.0543 126.657 89.9548 126.341 89.8519 126.027L90.8023 125.716ZM2.08165 126.684C2.17993 126.36 2.28165 126.037 2.38678 125.716L3.33716 126.027C3.23431 126.341 3.13479 126.657 3.03865 126.974L2.08165 126.684ZM91.3908 127.657C91.4818 127.983 91.5693 128.31 91.6533 128.639L90.6845 128.887C90.6023 128.565 90.5167 128.245 90.4277 127.926L91.3908 127.657ZM1.53571 128.639C1.61973 128.31 1.70725 127.983 1.79823 127.657L2.76137 127.926C2.67236 128.245 2.58674 128.565 2.50454 128.887L1.53571 128.639ZM91.8935 129.623C91.97 129.952 92.0431 130.283 92.1126 130.615L91.1338 130.82C91.0658 130.495 90.9943 130.172 90.9194 129.849L91.8935 129.623ZM1.07649 130.615C1.146 130.283 1.21905 129.952 1.2956 129.623L2.26963 129.849C2.19474 130.172 2.12327 130.495 2.05527 130.82L1.07649 130.615ZM92.3093 131.609C92.3713 131.941 92.4297 132.274 92.4845 132.609L91.4977 132.77C91.4441 132.443 91.3869 132.117 91.3263 131.792L92.3093 131.609ZM0.704516 132.609C0.75937 132.274 0.817796 131.941 0.879753 131.609L1.86279 131.792C1.80217 132.117 1.745 132.443 1.69133 132.771L0.704516 132.609ZM92.6377 133.611C92.685 133.945 92.7288 134.28 92.769 134.617L91.776 134.735C91.7367 134.406 91.6939 134.078 91.6476 133.752L92.6377 133.611ZM0.42011 134.617C0.460268 134.281 0.504016 133.945 0.551316 133.611L1.54144 133.752C1.49516 134.078 1.45235 134.406 1.41305 134.735L0.42011 134.617ZM92.8784 135.627C92.9111 135.962 92.9401 136.298 92.9656 136.635L91.9685 136.711C91.9435 136.381 91.9151 136.052 91.8831 135.724L92.8784 135.627ZM0.223438 136.635C0.248915 136.298 0.277991 135.962 0.310629 135.627L1.30592 135.724C1.27398 136.052 1.24553 136.381 1.2206 136.711L0.223438 136.635ZM93.0312 137.65C93.0493 137.986 93.0638 138.323 93.0747 138.661L92.0752 138.693C92.0645 138.362 92.0504 138.033 92.0327 137.704L93.0312 137.65ZM0.114377 138.661C0.125269 138.323 0.139771 137.986 0.157844 137.65L1.1564 137.704C1.13871 138.033 1.12452 138.363 1.11386 138.693L0.114377 138.661ZM93.0965 139.676C93.0983 139.846 93.0992 140.015 93.0992 140.185C93.0992 140.355 93.0983 140.525 93.0965 140.695L92.0965 140.684C92.0983 140.518 92.0992 140.352 92.0992 140.185C92.0992 140.019 92.0983 139.853 92.0965 139.687L93.0965 139.676ZM0.0898438 140.185C0.0898438 140.015 0.0907568 139.846 0.0925784 139.676L1.09252 139.687C1.09074 139.853 1.08984 140.019 1.08984 140.185C1.08984 140.352 1.09074 140.518 1.09252 140.684L0.092579 140.695C0.090757 140.525 0.0898438 140.355 0.0898438 140.185ZM93.0747 141.71C93.0638 142.048 93.0493 142.385 93.0312 142.721L92.0327 142.667C92.0504 142.338 92.0645 142.008 92.0752 141.677L93.0747 141.71ZM0.157847 142.721C0.139773 142.385 0.125271 142.048 0.114378 141.71L1.11386 141.678C1.12452 142.008 1.13872 142.338 1.1564 142.667L0.157847 142.721ZM92.9656 143.735C92.9401 144.073 92.9111 144.409 92.8784 144.744L91.8831 144.647C91.9151 144.319 91.9435 143.99 91.9685 143.66L92.9656 143.735ZM0.310633 144.744C0.277995 144.409 0.248918 144.073 0.223441 143.735L1.2206 143.66C1.24553 143.99 1.27399 144.319 1.30593 144.647L0.310633 144.744ZM92.769 145.754C92.7288 146.09 92.6851 146.425 92.6377 146.759L91.6476 146.619C91.6939 146.292 91.7367 145.964 91.776 145.635L92.769 145.754ZM0.551321 146.759C0.504021 146.425 0.460273 146.09 0.420115 145.754L1.41306 145.635C1.45235 145.964 1.49516 146.292 1.54144 146.619L0.551321 146.759ZM92.4846 147.762C92.4297 148.097 92.3713 148.43 92.3093 148.762L91.3263 148.578C91.3869 148.254 91.4441 147.928 91.4977 147.6L92.4846 147.762ZM0.87976 148.762C0.817803 148.43 0.759376 148.097 0.704522 147.762L1.69134 147.6C1.74501 147.928 1.80217 148.254 1.86279 148.578L0.87976 148.762ZM92.1126 149.756C92.0431 150.088 91.97 150.418 91.8935 150.748L90.9194 150.521C90.9943 150.199 91.0658 149.876 91.1338 149.551L92.1126 149.756ZM1.2956 150.748C1.21905 150.418 1.14601 150.088 1.0765 149.756L2.05528 149.551C2.12328 149.876 2.19475 150.199 2.26964 150.521L1.2956 150.748ZM91.6534 151.732C91.5693 152.06 91.4818 152.388 91.3908 152.713L90.4277 152.444C90.5167 152.126 90.6023 151.805 90.6845 151.484L91.6534 151.732ZM1.79824 152.713C1.70726 152.388 1.61974 152.06 1.53572 151.732L2.50455 151.484C2.58675 151.806 2.67237 152.126 2.76138 152.444L1.79824 152.713ZM91.1074 153.687C91.0091 154.011 90.9074 154.334 90.8023 154.655L89.8519 154.344C89.9548 154.029 90.0543 153.714 90.1504 153.397L91.1074 153.687ZM2.38679 154.655C2.28166 154.334 2.17994 154.011 2.08166 153.687L3.03865 153.397C3.1348 153.714 3.23432 154.029 3.33717 154.344L2.38679 154.655ZM90.4761 155.615C90.3637 155.935 90.248 156.252 90.1289 156.568L89.1932 156.216C89.3097 155.906 89.4229 155.596 89.5328 155.283L90.4761 155.615ZM3.06014 156.568C2.94106 156.252 2.82533 155.935 2.71298 155.615L3.65628 155.283C3.76619 155.596 3.87942 155.907 3.99592 156.216L3.06014 156.568ZM89.7606 157.514C89.6345 157.828 89.5049 158.14 89.3721 158.45L88.4527 158.057C88.5827 157.753 88.7094 157.448 88.8328 157.141L89.7606 157.514ZM3.81694 158.45C3.68414 158.14 3.55462 157.828 3.42843 157.514L4.35623 157.141C4.47969 157.448 4.6064 157.753 4.73632 158.057L3.81694 158.45ZM88.9625 159.379C88.8227 159.687 88.6796 159.993 88.5334 160.298L87.6321 159.864C87.7752 159.567 87.9152 159.267 88.052 158.966L88.9625 159.379ZM4.65571 160.298C4.50942 159.993 4.36635 159.687 4.22654 159.379L5.13707 158.966C5.27385 159.267 5.41383 159.567 5.55695 159.864L4.65571 160.298ZM88.0834 161.208C87.9302 161.509 87.7738 161.809 87.6142 162.107L86.7328 161.634C86.8889 161.343 87.042 161.05 87.1919 160.755L88.0834 161.208ZM5.57486 162.107C5.4153 161.809 5.25889 161.509 5.10567 161.208L5.99719 160.755C6.14711 161.05 6.30014 161.343 6.45626 161.634L5.57486 162.107ZM87.1251 162.996C86.9588 163.291 86.7894 163.583 86.6169 163.874L85.757 163.363C85.9258 163.079 86.0915 162.793 86.2542 162.504L87.1251 162.996ZM6.57218 163.874C6.39968 163.583 6.23027 163.291 6.06397 162.996L6.93483 162.504C7.09754 162.793 7.26331 163.079 7.43209 163.363L6.57218 163.874ZM86.0896 164.74C85.9106 165.028 85.7285 165.313 85.5434 165.595L84.7066 165.048C84.8877 164.771 85.0658 164.492 85.241 164.211L86.0896 164.74ZM7.64562 165.595C7.46056 165.313 7.27849 165.028 7.09948 164.74L7.94805 164.211C8.12322 164.492 8.30136 164.771 8.48245 165.048L7.64562 165.595ZM8.793 167.269C8.59575 166.994 8.40143 166.717 8.21007 166.438L9.03478 165.873C9.22204 166.146 9.41219 166.417 9.6052 166.685L8.793 167.269ZM84.979 166.438C84.7876 166.717 84.5933 166.994 84.3961 167.269L83.5839 166.685C83.7769 166.417 83.967 166.146 84.1543 165.873L84.979 166.438ZM10.012 168.89C9.803 168.624 9.59682 168.356 9.39352 168.086L10.1929 167.485C10.3918 167.75 10.5936 168.012 10.7981 168.272L10.012 168.89ZM83.7955 168.086C83.5922 168.356 83.3861 168.624 83.177 168.89L82.391 168.272C82.5955 168.012 82.7973 167.75 82.9962 167.485L83.7955 168.086ZM11.3003 170.457C11.08 170.201 10.8623 169.942 10.6475 169.681L11.42 169.046C11.6302 169.301 11.8432 169.555 12.0588 169.806L11.3003 170.457ZM82.5415 169.681C82.3267 169.942 82.1091 170.201 81.8888 170.457L81.1302 169.806C81.3459 169.555 81.5588 169.301 81.769 169.046L82.5415 169.681ZM12.6554 171.967C12.4241 171.72 12.1955 171.471 11.9696 171.219L12.7138 170.552C12.9349 170.798 13.1586 171.042 13.3849 171.283L12.6554 171.967ZM81.2194 171.219C80.9935 171.471 80.765 171.72 80.5337 171.967L79.8042 171.283C80.0305 171.042 80.2542 170.798 80.4752 170.552L81.2194 171.219ZM14.0746 173.417C13.8329 173.18 13.5937 172.941 13.3571 172.7L14.0717 172C14.3032 172.236 14.5372 172.47 14.7738 172.702L14.0746 173.417ZM79.8319 172.7C79.5954 172.941 79.3562 173.18 79.1144 173.417L78.4152 172.702C78.6518 172.47 78.8859 172.236 79.1174 172L79.8319 172.7ZM15.5554 174.803C15.3036 174.578 15.0543 174.349 14.8075 174.118L15.491 173.388C15.7325 173.614 15.9765 173.838 16.223 174.059L15.5554 174.803ZM78.3816 174.118C78.1348 174.349 77.8854 174.578 77.6336 174.803L76.9661 174.059C77.2125 173.838 77.4565 173.614 77.698 173.388L78.3816 174.118ZM17.095 176.124C16.8336 175.91 16.5746 175.692 16.318 175.472L16.9692 174.713C17.2203 174.929 17.4738 175.142 17.7296 175.352L17.095 176.124ZM76.8711 175.472C76.6145 175.692 76.3555 175.91 76.094 176.124L75.4594 175.352C75.7152 175.142 75.9687 174.929 76.2199 174.713L76.8711 175.472ZM18.6905 177.378C18.42 177.174 18.1517 176.968 17.8858 176.76L18.5034 175.973C18.7637 176.178 19.0262 176.379 19.291 176.578L18.6905 177.378ZM75.3033 176.76C75.0374 176.968 74.7691 177.174 74.4985 177.378L73.8981 176.578C74.1628 176.379 74.4254 176.178 74.6856 175.973L75.3033 176.76ZM20.3389 178.56C20.0597 178.369 19.7827 178.175 19.508 177.978L20.091 177.165C20.3598 177.358 20.6308 177.548 20.904 177.735L20.3389 178.56ZM73.681 177.978C73.4063 178.175 73.1294 178.369 72.8502 178.56L72.2851 177.735C72.5583 177.548 72.8293 177.358 73.0981 177.165L73.681 177.978ZM22.0371 179.67C21.7499 179.491 21.4647 179.309 21.1818 179.124L21.7288 178.287C22.0057 178.468 22.2847 178.646 22.5657 178.821L22.0371 179.67ZM72.0073 179.124C71.7243 179.309 71.4392 179.491 71.152 179.67L70.6233 178.821C70.9044 178.646 71.1834 178.468 71.4603 178.287L72.0073 179.124ZM23.7821 180.704C23.4874 180.538 23.1946 180.369 22.904 180.197L23.414 179.337C23.6984 179.505 23.9848 179.671 24.2732 179.833L23.7821 180.704ZM70.2851 180.197C69.9944 180.369 69.7017 180.538 69.407 180.704L68.9159 179.833C69.2043 179.671 69.4907 179.505 69.7751 179.337L70.2851 180.197ZM68.5176 181.193C68.2198 181.353 67.9201 181.509 67.6184 181.662L67.1659 180.77C67.461 180.62 67.7543 180.468 68.0457 180.312L68.5176 181.193ZM25.5706 181.662C25.269 181.509 24.9693 181.353 24.6715 181.193L25.1434 180.312C25.4348 180.468 25.7281 180.62 26.0232 180.77L25.5706 181.662ZM66.7081 182.111C66.4037 182.258 66.0976 182.401 65.7896 182.54L65.3766 181.63C65.6779 181.493 65.9774 181.353 66.2752 181.21L66.7081 182.111ZM27.3994 182.54C27.0915 182.401 26.7853 182.258 26.481 182.111L26.9139 181.21C27.2117 181.353 27.5112 181.493 27.8125 181.63L27.3994 182.54ZM29.2651 183.338C28.9512 183.212 28.6391 183.082 28.3286 182.949L28.7216 182.03C29.0253 182.16 29.3308 182.286 29.6378 182.41L29.2651 183.338ZM64.8604 182.949C64.55 183.082 64.2378 183.212 63.924 183.338L63.5513 182.41C63.8583 182.286 64.1637 182.16 64.4675 182.03L64.8604 182.949ZM31.1641 184.052C30.8448 183.94 30.5271 183.824 30.2111 183.706L30.5633 182.77C30.8725 182.886 31.1834 182.999 31.4957 183.109L31.1641 184.052ZM62.978 183.706C62.662 183.824 62.3442 183.94 62.0249 184.052L61.6933 183.109C62.0057 182.999 62.3166 182.886 62.6258 182.77L62.978 183.706ZM61.0642 184.378C60.743 184.483 60.4203 184.585 60.0961 184.683L59.8063 183.726C60.1235 183.63 60.4392 183.53 60.7534 183.428L61.0642 184.378ZM33.093 184.683C32.7688 184.585 32.446 184.483 32.1249 184.378L32.4356 183.428C32.7499 183.53 33.0656 183.63 33.3828 183.726L33.093 184.683ZM59.1227 184.966C58.7969 185.057 58.4697 185.144 58.1411 185.228L57.8936 184.259C58.2151 184.177 58.5352 184.092 58.854 184.003L59.1227 184.966ZM35.048 185.228C34.7194 185.144 34.3922 185.057 34.0664 184.966L34.3351 184.003C34.6539 184.092 34.974 184.177 35.2955 184.259L35.048 185.228ZM57.157 185.468C56.8277 185.545 56.497 185.618 56.165 185.687L55.9603 184.708C56.2851 184.64 56.6087 184.569 56.9309 184.494L57.157 185.468ZM37.0241 185.687C36.6921 185.618 36.3614 185.545 36.0321 185.468L36.2582 184.494C36.5804 184.569 36.904 184.64 37.2288 184.708L37.0241 185.687ZM39.0179 186.059C38.6834 186.004 38.3501 185.945 38.018 185.884L38.2012 184.9C38.5261 184.961 38.8522 185.018 39.1795 185.072L39.0179 186.059ZM55.1711 185.884C54.839 185.945 54.5057 186.004 54.1712 186.059L54.0096 185.072C54.3369 185.018 54.663 184.961 54.9879 184.9L55.1711 185.884ZM53.1685 186.212C52.8345 186.259 52.4994 186.303 52.1632 186.343L52.0447 185.35C52.3737 185.31 52.7017 185.268 53.0285 185.221L53.1685 186.212ZM41.0259 186.343C40.6897 186.303 40.3546 186.259 40.0206 186.212L40.1606 185.221C40.4874 185.268 40.8154 185.31 41.1444 185.35L41.0259 186.343ZM43.0446 186.539C42.7074 186.514 42.3712 186.485 42.036 186.452L42.1328 185.457C42.4608 185.489 42.7899 185.517 43.1199 185.542L43.0446 186.539ZM51.1531 186.452C50.8179 186.485 50.4817 186.514 50.1445 186.539L50.0692 185.542C50.3992 185.517 50.7283 185.489 51.0563 185.457L51.1531 186.452ZM45.0703 186.648C44.7323 186.637 44.3953 186.623 44.0592 186.605L44.1129 185.606C44.4418 185.624 44.7717 185.638 45.1024 185.649L45.0703 186.648ZM49.1299 186.605C48.7938 186.623 48.4568 186.637 48.1189 186.648L48.0867 185.649C48.4174 185.638 48.7473 185.624 49.0762 185.606L49.1299 186.605ZM46.5945 186.673C46.4245 186.673 46.2547 186.672 46.0852 186.67L46.0959 185.67C46.2619 185.672 46.4281 185.673 46.5945 185.673C46.761 185.673 46.9272 185.672 47.0932 185.67L47.1039 186.67C46.9344 186.672 46.7645 186.673 46.5945 186.673Z" fill="black"/>
<path d="M139.406 186.173C164.814 186.173 185.411 165.583 185.411 140.185C185.411 114.787 164.814 94.1982 139.406 94.1982C113.998 94.1982 93.4012 114.787 93.4012 140.185C93.4012 165.583 113.998 186.173 139.406 186.173Z" fill="black"/>
<path fill-rule="evenodd" clip-rule="evenodd" d="M37.085 140.185L19.3906 122.729L20.0929 122.017L38.5089 140.185L20.0929 158.354L19.3906 157.642L37.085 140.185Z" fill="black"/>
<path fill-rule="evenodd" clip-rule="evenodd" d="M73.4473 156.588H44.3774V155.588H73.4473V156.588Z" fill="black"/>
</svg>
