<svg width="188" height="188" viewBox="0 0 188 188" fill="none" xmlns="http://www.w3.org/2000/svg">
<path d="M94.0001 187.173C145.329 187.173 186.94 145.562 186.94 94.2326C186.94 42.9032 145.329 1.29257 94.0001 1.29257C42.6707 1.29257 1.06006 42.9032 1.06006 94.2326C1.06006 145.562 42.6707 187.173 94.0001 187.173Z" fill="white"/>
<path fill-rule="evenodd" clip-rule="evenodd" d="M94.0001 1.79257C42.9469 1.79257 1.56006 43.1794 1.56006 94.2326C1.56006 145.286 42.9469 186.673 94.0001 186.673C145.053 186.673 186.44 145.286 186.44 94.2326C186.44 43.1794 145.053 1.79257 94.0001 1.79257ZM0.560059 94.2326C0.560059 42.6271 42.3946 0.792572 94.0001 0.792572C145.606 0.792572 187.44 42.6271 187.44 94.2326C187.44 145.838 145.606 187.673 94.0001 187.673C42.3946 187.673 0.560059 145.838 0.560059 94.2326Z" fill="#131313"/>
<path d="M93.9999 173.349C137.695 173.349 173.117 137.928 173.117 94.2326C173.117 50.5375 137.695 15.1157 93.9999 15.1157C50.3049 15.1157 14.883 50.5375 14.883 94.2326C14.883 137.928 50.3049 173.349 93.9999 173.349Z" fill="#F5FF89"/>
<path fill-rule="evenodd" clip-rule="evenodd" d="M93.9999 15.6157C50.581 15.6157 15.383 50.8137 15.383 94.2326C15.383 137.651 50.581 172.849 93.9999 172.849C137.419 172.849 172.617 137.651 172.617 94.2326C172.617 50.8137 137.419 15.6157 93.9999 15.6157ZM14.383 94.2326C14.383 50.2614 50.0287 14.6157 93.9999 14.6157C137.971 14.6157 173.617 50.2614 173.617 94.2326C173.617 138.204 137.971 173.849 93.9999 173.849C50.0287 173.849 14.383 138.204 14.383 94.2326Z" fill="#131313"/>
<path d="M35.7528 105.228C22.2611 104.53 14.3086 93.2785 15.6565 82.1683C17.107 70.238 28.8979 61.1461 42.9352 65.3877C38.0378 60.845 35.4704 55.5013 35.7079 49.0812C35.9454 42.706 38.6604 37.4521 43.7182 33.4988C52.2741 26.8096 66.1317 27.4632 73.9174 39.2141C73.16 32.5377 74.7325 26.816 79.0907 22.0362C83.4617 17.2436 89.0201 15.0972 95.4643 15.4624C106.209 16.0711 116.081 25.2334 114.54 39.0411C122.968 26.3163 137.827 27.4888 145.112 33.7295C149.893 37.8237 152.538 42.9239 152.718 49.2158C152.891 55.4565 150.439 60.6463 145.984 65.0417C153.045 63.2028 159.508 64.1896 165.246 68.6874C169.354 71.9103 171.877 76.1647 172.711 81.3161C173.693 87.4094 172.198 92.9197 168.244 97.6739C164.303 102.409 159.104 104.747 152.698 105.119C166.37 110.866 168.86 125.968 162.852 135.342C156.883 144.665 143.61 148.714 132.287 140.148C135.753 146.907 135.978 153.475 132.589 159.984C130.124 164.707 126.299 167.981 121.235 169.704C115.387 171.697 109.681 171.242 104.309 168.186C99.0074 165.168 95.8174 160.491 94.3154 154.525C92.3834 161.682 88.2114 166.834 81.3308 169.518C76.3179 171.479 71.2408 171.332 66.2344 169.326C56.5617 165.45 49.8158 152.943 56.0931 140.346C50.6695 144.312 44.957 145.812 38.699 144.453C32.3703 143.076 27.7233 139.398 24.7258 133.67C19.9569 124.559 23.0313 110.617 35.7593 105.222L35.7528 105.228ZM93.7698 115.243C104.765 115.307 113.757 106.484 113.821 95.5851C113.879 84.5198 105.073 75.5752 94.033 75.4984C83.0638 75.4215 74.0778 84.2443 73.9815 95.1814C73.8853 106.221 82.7236 115.185 93.7698 115.249V115.243ZM94.1229 55.2258C104.912 55.2578 113.558 46.7042 113.59 35.972C113.622 25.1758 105.066 16.5132 94.3475 16.4875C83.5131 16.4619 74.8352 24.9772 74.8031 35.6773C74.771 46.5888 83.2756 55.2002 94.1229 55.2322V55.2258ZM151.671 49.6963C151.646 38.9834 142.949 30.2375 132.326 30.2311C121.613 30.2247 112.807 38.9962 112.788 49.6963C112.769 60.3388 121.658 69.1103 132.403 69.0527C143.026 68.995 151.703 60.2811 151.678 49.6963H151.671ZM36.0738 104.081C46.9917 103.979 55.477 95.3737 55.3678 84.5134C55.2587 73.8453 46.4525 65.2596 35.7336 65.3557C25.0788 65.4518 16.5294 74.0695 16.5936 84.6351C16.6642 95.5018 25.3613 104.184 36.0738 104.081ZM133.103 84.4749C133.006 95.0469 141.601 103.889 152.069 103.985C162.923 104.081 171.832 95.5851 171.922 85.0516C172.012 74.108 163.488 65.3877 152.602 65.2916C141.768 65.1955 133.205 73.621 133.103 84.4749ZM75.5605 49.754C75.5348 39.0475 66.9276 30.2952 56.4076 30.2952C45.5026 30.2952 36.7156 38.9962 36.7541 49.754C36.7926 60.4221 45.3999 68.9886 56.0931 69.0014C66.9148 69.0142 75.5798 60.4413 75.5605 49.7476V49.754ZM73.667 169.839C83.6029 170.281 92.8392 161.778 93.4553 151.854C94.1614 140.417 85.4835 131.632 75.0599 131.101C64.4372 130.562 55.1881 138.764 54.726 148.99C54.2125 160.407 62.3127 169.333 73.667 169.839ZM114.437 169.813C124.996 169.941 133.757 161.317 133.892 150.655C134.027 140.032 125.432 131.171 114.887 131.056C104.078 130.934 95.2782 139.5 95.1562 150.252C95.0343 161.093 103.5 169.685 114.437 169.813ZM42.9737 143.864C53.6477 143.915 62.3769 135.342 62.4539 124.738C62.5309 113.993 53.8338 105.177 43.1085 105.125C32.3895 105.074 23.6026 113.859 23.6218 124.604C23.6411 135.233 32.2612 143.813 42.9737 143.864ZM145.619 143.819C156.151 143.889 164.816 135.201 164.887 124.501C164.958 113.839 156.402 105.196 145.708 105.119C134.829 105.036 126.164 113.557 126.119 124.392C126.068 135.099 134.759 143.748 145.625 143.825L145.619 143.819ZM73.6478 100.109C73.6029 94.5343 68.9944 89.8314 63.5964 89.857C57.9096 89.8826 53.0251 94.4895 53.0379 99.8139C53.0508 105.715 57.6785 110.456 63.391 110.431C69.1163 110.405 73.6863 105.805 73.6478 100.115V100.109ZM67.6208 68.9053C62.0174 68.8412 57.3319 73.4352 57.1907 79.1441C57.0495 84.7312 61.6772 89.3893 67.4668 89.479C73.0188 89.5623 77.6915 84.9811 77.8006 79.3363C77.9097 73.6787 73.3204 68.9694 67.6272 68.9053H67.6208ZM84.1934 76.0366C89.7968 76.0494 94.4695 71.3336 94.4695 65.6696C94.4695 60.1145 89.7711 55.418 84.2255 55.4244C78.5644 55.4244 73.8339 60.1273 73.8596 65.7145C73.8853 71.3465 78.5708 76.0238 84.1998 76.0366H84.1934ZM93.6992 116.3C88.0253 116.409 83.3398 121.073 83.436 126.507C83.5387 132.228 88.3077 137.008 93.757 136.848C99.6492 136.681 104.168 132.087 104.065 126.378C103.962 120.766 99.2577 116.191 93.7057 116.3H93.6992ZM73.8724 108.649C68.1471 108.573 63.5322 113.167 63.4809 118.991C63.4295 124.578 68.0958 129.153 73.8724 129.185C79.3859 129.217 83.9752 124.578 84.033 118.908C84.0843 113.352 79.5015 108.72 73.8724 108.643V108.649ZM135.355 101.23C135.285 95.5851 130.529 90.927 124.938 91.0295C119.303 91.1321 114.771 95.6364 114.771 101.127C114.771 106.849 119.547 111.661 125.124 111.565C130.92 111.469 135.42 106.92 135.349 101.23H135.355ZM103.738 119.683C103.667 125.225 108.25 129.806 113.937 129.89C119.585 129.966 124.316 125.263 124.367 119.529C124.412 114.032 119.803 109.502 114.065 109.399C108.5 109.303 103.808 113.974 103.738 119.689V119.683ZM105.496 76.3633C111.19 76.4082 115.843 71.8398 115.875 66.1758C115.907 60.5118 111.28 55.8537 105.625 55.8601C99.9701 55.8601 95.4515 60.3004 95.3231 65.9772C95.1947 71.5899 99.8289 76.3185 105.496 76.3633ZM132.095 80.0411C132.146 74.6142 127.525 70.0586 121.902 70.0009C116.113 69.9369 111.575 74.3643 111.511 80.1308C111.446 85.7179 116.042 90.3504 121.671 90.3888C127.409 90.4273 132.043 85.8269 132.095 80.0411Z" fill="#18181B"/>
</svg>
