<svg width="103" height="30" viewBox="0 0 103 30" fill="none" xmlns="http://www.w3.org/2000/svg">
<path d="M36.8318 15.9337H42.2305C42.2305 16.486 42.2029 16.9969 42.1614 17.4525C42.12 17.9082 42.0234 18.3224 41.8853 18.709C41.692 19.2613 41.4297 19.7445 41.0983 20.1726C40.7669 20.5868 40.3665 20.9458 39.9247 21.2219C39.4828 21.4981 38.9858 21.719 38.4473 21.8571C37.9088 22.009 37.3427 22.078 36.749 22.078C35.9343 22.078 35.1887 21.9399 34.5122 21.6776C33.8494 21.4152 33.2695 21.0286 32.7863 20.5592C32.303 20.0621 31.9302 19.4822 31.6679 18.8056C31.4055 18.1153 31.2675 17.3697 31.2675 16.5412C31.2675 15.7266 31.3917 14.981 31.6541 14.3045C31.9164 13.6141 32.303 13.0342 32.7725 12.5509C33.2695 12.0677 33.8494 11.6949 34.5398 11.4325C35.2302 11.1702 35.9896 11.0321 36.8318 11.0321C37.9226 11.0321 38.8753 11.2668 39.7037 11.7363C40.5322 12.2057 41.1811 12.9375 41.6644 13.9317L39.0824 14.9948C38.8477 14.4149 38.5301 14.0145 38.1435 13.766C37.7707 13.5174 37.3289 13.3932 36.8456 13.3932C36.4452 13.3932 36.0724 13.476 35.741 13.6279C35.4097 13.7798 35.1197 13.9869 34.885 14.2768C34.6503 14.553 34.4708 14.8982 34.3327 15.2848C34.2084 15.6852 34.1394 16.127 34.1394 16.6103C34.1394 17.0521 34.1946 17.4663 34.3051 17.8391C34.4293 18.2119 34.595 18.5433 34.8298 18.8195C35.0645 19.0956 35.3544 19.3165 35.6858 19.4684C36.031 19.6203 36.4314 19.6893 36.8732 19.6893C37.1356 19.6893 37.3979 19.6617 37.6464 19.6065C37.895 19.5374 38.1159 19.4408 38.3092 19.3165C38.5163 19.1784 38.682 18.999 38.8063 18.7918C38.9305 18.5847 39.0272 18.3224 39.0686 18.0186H36.8318V15.9337ZM55.6512 13.5174V22.078H52.7517V13.5174H50.4044V11.0321H57.9985V13.5174H55.6512ZM68.0778 14.8153C67.4427 14.0421 66.6695 13.6555 65.7444 13.6555C65.3302 13.6555 64.9574 13.7245 64.5984 13.8764C64.2532 14.0283 63.9632 14.2354 63.7009 14.484C63.4524 14.7325 63.2452 15.0362 63.1072 15.3952C62.9691 15.7542 62.9001 16.127 62.9001 16.5412C62.9001 16.9555 62.9691 17.3421 63.1072 17.7011C63.2591 18.0601 63.4524 18.3638 63.7009 18.6262C63.9632 18.8885 64.267 19.0956 64.6122 19.2337C64.9574 19.3856 65.3302 19.4546 65.7306 19.4546C66.6004 19.4546 67.3875 19.0818 68.0778 18.3362V21.5671L67.8017 21.6638C67.3875 21.8156 67.0008 21.9123 66.628 21.9813C66.2691 22.0504 65.9101 22.0918 65.5511 22.0918C64.8331 22.0918 64.1289 21.9537 63.4662 21.6914C62.8034 21.4152 62.2235 21.0286 61.7126 20.5316C61.2156 20.0345 60.8014 19.4408 60.4976 18.7642C60.1938 18.0739 60.0419 17.3283 60.0419 16.5274C60.0419 15.7266 60.1938 14.981 60.4838 14.3183C60.7875 13.6417 61.188 13.0618 61.6988 12.5785C62.2097 12.0815 62.8034 11.7087 63.4662 11.4325C64.1289 11.1564 64.8331 11.0183 65.5649 11.0183C65.9791 11.0183 66.3933 11.0597 66.7937 11.1564C67.208 11.2392 67.636 11.3773 68.0778 11.5568V14.8153ZM73.7664 16.5551C73.7664 16.9693 73.8493 17.3559 74.0012 17.7149C74.153 18.0739 74.374 18.3776 74.6363 18.64C74.8986 18.9023 75.2162 19.1094 75.5752 19.2475C75.9342 19.3856 76.3208 19.4546 76.7212 19.4546C77.1216 19.4546 77.4944 19.3856 77.8534 19.2475C78.2124 19.0956 78.53 18.8885 78.8061 18.64C79.0823 18.3776 79.3032 18.0739 79.4551 17.7149C79.6069 17.3559 79.6898 16.9831 79.6898 16.5551C79.6898 16.127 79.6069 15.7542 79.4551 15.3952C79.3032 15.0362 79.0823 14.7325 78.8061 14.4701C78.5438 14.2078 78.2262 14.0145 77.8534 13.8764C77.4944 13.7245 77.1216 13.6555 76.7212 13.6555C76.3208 13.6555 75.948 13.7245 75.5752 13.8764C75.2162 14.0145 74.9124 14.2216 74.6363 14.4701C74.374 14.7325 74.153 15.0362 74.0012 15.3952C73.8493 15.7542 73.7664 16.1408 73.7664 16.5551ZM70.9221 16.5551C70.9221 15.7818 71.0602 15.0501 71.3502 14.3873C71.6401 13.7107 72.0405 13.117 72.5514 12.62C73.0623 12.1229 73.6698 11.7225 74.374 11.4463C75.0919 11.1564 75.879 11.0183 76.7212 11.0183C77.5635 11.0183 78.3505 11.1564 79.0546 11.4463C79.7726 11.7225 80.3802 12.1091 80.891 12.62C81.4157 13.117 81.8161 13.7107 82.1061 14.3873C82.396 15.0501 82.5341 15.7818 82.5341 16.5551C82.5341 17.3283 82.396 18.0601 82.1061 18.7366C81.8161 19.3994 81.4157 19.9931 80.891 20.4901C80.3802 20.9872 79.7726 21.3876 79.0546 21.6776C78.3367 21.9537 77.5635 22.0918 76.7212 22.0918C75.8652 22.0918 75.0781 21.9537 74.374 21.6776C73.6698 21.3876 73.0623 21.001 72.5514 20.4901C72.0405 19.9931 71.6401 19.3994 71.3502 18.7366C71.0602 18.0601 70.9221 17.3421 70.9221 16.5551ZM88.2365 11.0321V22.078H85.337V11.0321H88.2365ZM47.643 11.0321V22.078H44.7434V11.0321H47.643ZM91.2741 22.078V11.0321H94.0356L99.4205 17.7839V11.0321H102.32V22.078H99.5309L94.1737 15.3262V22.078H91.2741Z" fill="white"/>
<path fill-rule="evenodd" clip-rule="evenodd" d="M20.1526 11.6672C21.1191 13.0203 21.6299 14.6496 21.6161 16.2927C21.6161 17.9081 21.0915 19.5374 20.1526 20.8491L22.1546 22.3679C23.4249 20.6144 24.1291 18.4604 24.1291 16.2927C24.1429 14.0007 23.3835 11.7501 22.0027 9.92749L20.8567 10.963L20.1526 11.6672Z" fill="white"/>
<path fill-rule="evenodd" clip-rule="evenodd" d="M23.9496 23.7348L17.2116 18.6123C17.6948 17.9772 17.971 17.2177 18.0124 16.4169C18.04 15.6161 17.8329 14.8429 17.4049 14.1663L20.6358 11.253L24.0048 8.0911C24.2257 7.88399 24.2395 7.525 24.0186 7.30408L23.5491 6.83463C21.1467 4.40454 17.9157 2.98239 14.5053 2.87193L14.5191 1.02174C14.5329 0.897478 14.5191 0.773213 14.4915 0.648947C14.4501 0.52468 14.3949 0.414221 14.312 0.317569C14.2292 0.220918 14.1325 0.151882 14.0083 0.096653C13.8978 0.0414237 13.7735 0.0138082 13.6493 0.0138082C13.525 0.0138082 13.4007 0.0414237 13.2903 0.096653C13.1798 0.151882 13.0694 0.220918 12.9865 0.317569C12.9037 0.414221 12.8346 0.52468 12.807 0.635138C12.7656 0.759404 12.7518 0.88367 12.7794 1.00794L12.7656 2.91335C11.951 2.99619 11.1501 3.14807 10.3631 3.3828L10.3769 1.00794C10.3907 0.88367 10.3769 0.759404 10.3493 0.635138C10.3079 0.510872 10.2527 0.400414 10.1698 0.303763C10.087 0.207112 9.99033 0.138074 9.86607 0.0828449C9.75561 0.0276155 9.63134 0 9.50708 0C9.38281 0 9.25854 0.0276155 9.14809 0.0828449C9.03763 0.138074 8.92717 0.207112 8.84432 0.303763C8.76148 0.400414 8.69244 0.510871 8.66483 0.62133C8.62341 0.745596 8.6096 0.869864 8.63721 0.99413L8.59579 4.03174C5.82052 5.2744 3.54231 7.42835 2.16157 10.1346C0.78084 12.8408 0.339005 15.9475 0.946528 18.9299C1.55405 21.9122 3.1557 24.6047 5.48914 26.5515C7.82258 28.4983 10.7635 29.6029 13.7874 29.6582L23.5906 29.6996C23.8943 29.6996 24.1429 29.4511 24.1429 29.1473V24.1905C24.1567 24.011 24.0876 23.8453 23.9496 23.7348ZM13.9945 27.2695C11.5782 27.2557 9.23093 26.441 7.32552 24.9775C5.4201 23.5001 4.05318 21.4152 3.43185 19.0817C2.81052 16.7483 2.99001 14.263 3.91511 12.04C4.854 9.81702 6.48327 7.95303 8.58199 6.73798L8.56818 10.3555C8.55437 10.4798 8.56818 10.604 8.59579 10.7283C8.63721 10.8526 8.69244 10.963 8.77529 11.0597C8.85813 11.1563 8.95478 11.2254 9.07905 11.2806C9.18951 11.3358 9.31377 11.3634 9.43804 11.3634C9.56231 11.3634 9.68657 11.3358 9.79703 11.2806C9.90749 11.2254 10.0179 11.1563 10.1008 11.0597C10.1836 10.963 10.2527 10.8526 10.2803 10.7421C10.3217 10.6178 10.3355 10.4936 10.3079 10.3693L10.3217 5.93715C11.5229 5.49532 12.807 5.28821 14.0911 5.28821C16.466 5.28821 18.7718 6.07523 20.6496 7.49738C20.7877 7.60784 20.8015 7.80115 20.6772 7.92541L15.5409 12.6337C15.0714 12.4404 14.5606 12.33 14.0635 12.33C13.4974 12.33 12.9451 12.4404 12.4204 12.6751C11.8957 12.9099 11.4401 13.255 11.0811 13.6831C10.7083 14.1111 10.4322 14.622 10.2665 15.1467C10.1008 15.6989 10.0594 16.265 10.1422 16.8173C10.2251 17.3834 10.4184 17.9219 10.7221 18.3914C11.0259 18.8746 11.4401 19.275 11.8957 19.5926C12.379 19.8964 12.9175 20.1035 13.4698 20.1863C14.0359 20.2692 14.602 20.2278 15.1405 20.0621L21.699 25.0465C21.768 25.1017 21.8094 25.1846 21.8094 25.2674L21.7956 27.021C21.7956 27.1728 21.6713 27.2971 21.5195 27.2971L13.9945 27.2695ZM15.5961 16.2788C15.5961 16.5826 15.4995 16.8864 15.3338 17.1487C15.1543 17.4111 14.9196 17.6044 14.6296 17.7286C14.3396 17.8529 14.0221 17.8805 13.7321 17.8115C13.4422 17.7424 13.1522 17.6044 12.9313 17.3834C12.7104 17.1625 12.5585 16.8864 12.5033 16.5826C12.448 16.2789 12.4757 15.9613 12.5999 15.6851C12.7242 15.3952 12.9175 15.1605 13.1798 14.981C13.4422 14.8153 13.7459 14.7186 14.0497 14.7186C14.4639 14.7186 14.8643 14.8843 15.1405 15.1881C15.4442 15.4642 15.5961 15.8508 15.5961 16.2788Z" fill="white"/>
</svg>
