<svg width="208" height="188" viewBox="0 0 208 188" fill="none" xmlns="http://www.w3.org/2000/svg">
<path fill-rule="evenodd" clip-rule="evenodd" d="M0 173.433V146.73H1V173.433C1 180.749 6.92371 186.673 14.2395 186.673H193.76C201.076 186.673 207 180.749 207 173.433V146.73H208V173.433C208 181.301 201.629 187.673 193.76 187.673H14.2395C6.37143 187.673 0 181.301 0 173.433Z" fill="#131313"/>
<path d="M103.014 140.939L147.295 102.27L147.953 103.023L102.514 142.702L57.0513 103.023L57.7088 102.27L102.014 140.938V0H103.014V140.939Z" fill="#131313"/>
<path d="M193.689 187.161C201.31 187.161 207.488 180.983 207.488 173.361C207.488 165.74 201.31 159.562 193.689 159.562C186.067 159.562 179.889 165.74 179.889 173.361C179.889 180.983 186.067 187.161 193.689 187.161Z" fill="white"/>
<path fill-rule="evenodd" clip-rule="evenodd" d="M193.689 186.161C200.757 186.161 206.488 180.43 206.488 173.361C206.488 166.293 200.757 160.562 193.689 160.562C186.62 160.562 180.889 166.293 180.889 173.361C180.889 180.43 186.62 186.161 193.689 186.161ZM207.488 173.361C207.488 180.983 201.31 187.161 193.689 187.161C186.067 187.161 179.889 180.983 179.889 173.361C179.889 165.74 186.067 159.562 193.689 159.562C201.31 159.562 207.488 165.74 207.488 173.361Z" fill="#131313"/>
<path d="M14.2992 187.161C21.9203 187.161 28.0984 180.983 28.0984 173.361C28.0984 165.74 21.9203 159.562 14.2992 159.562C6.67811 159.562 0.5 165.74 0.5 173.361C0.5 180.983 6.67811 187.161 14.2992 187.161Z" fill="#131313"/>
</svg>
